<svg xmlns="http://www.w3.org/2000/svg" width="64" height="64"><rect id="backgroundrect" width="100%" height="100%" x="0" y="0" fill="none" stroke="none"/><g class="currentLayer" style=""><title>Layer 1</title><g id="Layer_63" data-name="Layer 63" class="" fill-opacity="1" fill="#cccccc"><path d="M56.9,47.78c6.08-9,6.06-22.65,0-31.65-11.34-18.08-38.36-18.07-49.7,0C1,25.16,1,38.84,7.15,47.87c11.34,18.08,38.36,18.07,49.7,0A.41.41,0,0,0,56.9,47.78ZM5.55,33.5h8.82a46.13,46.13,0,0,0,1.87,12h-7A26.28,26.28,0,0,1,5.55,33.5Zm3.66-15h7a46.13,46.13,0,0,0-1.87,12H5.55A26.28,26.28,0,0,1,9.21,18.5Zm49.24,12H49.63a46.13,46.13,0,0,0-1.87-12h7A26.28,26.28,0,0,1,58.45,30.5Zm-11.82,0H37.82c0-3-.13-7.47-.5-12h7.22A42.27,42.27,0,0,1,46.63,30.5Zm-16.91,15c-.3-3.44-.5-7.48-.53-12h5.62c0,4.52-.23,8.56-.53,12Zm4.25,3c-.56,4.84-1.3,8.16-2,9.53-.67-1.37-1.41-4.69-2-9.53Zm-4.78-18c0-4.52.23-8.56.53-12h4.56c.3,3.44.5,7.48.53,12Zm.84-15c.56-4.84,1.3-8.16,2-9.53.67,1.37,1.41,4.69,2,9.53Zm7,0A44.24,44.24,0,0,0,35.2,6.17c3.24,1.37,6.11,4.74,8.17,9.33ZM28.8,6.17A44.24,44.24,0,0,0,27,15.5H20.63C22.69,10.91,25.56,7.54,28.8,6.17ZM26.68,18.5c-.37,4.53-.47,9-.5,12H17.37a42.27,42.27,0,0,1,2.09-12Zm-9.31,15h8.81c0,3,.13,7.47.5,12H19.46A42.27,42.27,0,0,1,17.37,33.5Zm9.6,15a44.24,44.24,0,0,0,1.83,9.33c-3.24-1.37-6.11-4.74-8.17-9.33Zm8.23,9.33A44.24,44.24,0,0,0,37,48.5h6.34C41.31,53.09,38.44,56.46,35.2,57.83ZM37.32,45.5c.37-4.53.47-9,.5-12h8.81a42.27,42.27,0,0,1-2.09,12Zm12.31-12h8.82a26.28,26.28,0,0,1-3.66,12h-7A46.13,46.13,0,0,0,49.63,33.5Zm3.08-18h-6a27,27,0,0,0-4.83-8.08A26.64,26.64,0,0,1,52.71,15.5ZM22.11,7.42a27,27,0,0,0-4.83,8.08h-6A26.64,26.64,0,0,1,22.11,7.42ZM11.29,48.5h6a27,27,0,0,0,4.83,8.08A26.64,26.64,0,0,1,11.29,48.5Zm30.6,8.08a27,27,0,0,0,4.83-8.08h6A26.64,26.64,0,0,1,41.89,56.58Z" id="svg_1" fill="#cccccc"/></g></g></svg>