<svg xmlns:dc="http://purl.org/dc/elements/1.1/" xmlns:cc="http://creativecommons.org/ns#" xmlns:rdf="http://www.w3.org/1999/02/22-rdf-syntax-ns#" xmlns:svg="http://www.w3.org/2000/svg" xmlns="http://www.w3.org/2000/svg" version="1.1" id="svg2" xml:space="preserve" width="647.16699" height="750.97699" viewBox="0 0 647.16699 750.97701"><metadata id="metadata8"><rdf:RDF><cc:Work rdf:about=""><dc:format>image/svg+xml</dc:format><dc:type rdf:resource="http://purl.org/dc/dcmitype/StillImage"/><dc:title/></cc:Work></rdf:RDF></metadata><defs id="defs6"><clipPath clipPathUnits="userSpaceOnUse" id="clipPath20"><path d="m 0,790.889 900,0 L 900,0 0,0 Z" id="path18"/></clipPath></defs><g id="g10" transform="matrix(1.3333333,0,0,-1.3333333,-278.05173,902.58312)"><g id="g14"><g id="g16" clip-path="url(#clipPath20)"><g id="g22" transform="translate(649.8358,676.9377)"><path d="m 0,0 -397.219,0 c -32.196,0 -44.078,-11.882 -44.078,-44.093 l 0,-388.676 c 0,-3.645 0.147,-7.031 0.469,-10.168 0.733,-7.031 0.871,-13.844 7.41,-21.601 0.639,-0.76 7.315,-5.728 7.315,-5.728 3.591,-1.761 6.043,-3.058 10.093,-4.688 l 195.596,-81.948 c 10.154,-4.655 14.4,-6.469 21.775,-6.323 l 0,-10e-4 c 0.01,0 0.019,0 0.029,0 0.01,0 0.019,0 0.029,0 l 0,10e-4 c 7.375,-0.146 11.621,1.668 21.776,6.323 l 195.595,81.948 c 4.051,1.63 6.502,2.927 10.094,4.688 0,0 6.676,4.968 7.314,5.728 6.539,7.757 6.677,14.57 7.41,21.601 0.322,3.137 0.47,6.523 0.47,10.168 l 0,388.676 C 44.078,-11.882 32.195,0 0,0" style="fill:#2f2d2e;fill-opacity:1;fill-rule:evenodd;stroke:none" id="path24"/></g><g id="g26" transform="translate(623.2303,286.175)"><path d="m 0,0 -0.09,-0.897 -0.089,-0.985 -0.18,-0.897 -0.268,-0.896 -0.174,-0.807 -0.27,-0.897 -0.358,-0.807 -0.359,-0.718 -0.353,-0.806 -0.448,-0.717 -0.448,-0.718 -0.533,-0.717 -0.449,-0.717 -0.532,-0.627 -0.628,-0.628 -0.533,-0.538 -0.716,-0.628 -0.623,-0.538 -0.717,-0.538 -0.712,-0.442 -0.712,-0.538 -0.807,-0.448 -0.802,-0.359 -0.801,-0.448 -0.897,-0.359 -0.891,-0.359 -0.891,-0.268 -0.891,-0.27 -0.807,-0.268 -0.891,-0.18 -0.802,-0.179 -0.801,-0.179 -0.897,-0.18 -0.892,-0.089 -0.801,-0.09 -0.897,-0.09 -0.98,-0.09 -0.892,-0.089 -0.891,0 -0.981,0 -0.986,0 -0.891,0 -0.892,0.089 -0.98,0 -0.892,0.09 -0.896,0.09 -0.981,0.09 -0.891,0.179 -0.891,0.09 -0.897,0.179 -0.892,0.179 -0.891,0.18 -0.891,0.179 -0.896,0.268 -0.802,0.18 -0.891,0.269 -0.892,0.269 -0.806,0.359 -0.891,0.269 -0.802,0.268 -0.892,0.359 -0.806,0.359 -0.802,0.359 -0.802,0.442 -0.806,0.359 -0.802,0.449 -0.712,0.447 -0.807,0.449 -0.712,0.448 -0.717,0.448 -0.712,0.538 -0.712,0.538 -0.717,0.538 -0.713,0.538 -0.627,0.538 -0.712,0.627 0.538,0.717 0.622,0.628 0.538,0.718 0.623,0.717 0.538,0.627 0.532,0.717 0.628,0.718 0.532,0.627 0.628,0.717 0.533,0.628 0.627,0.717 0.533,0.718 0.538,0.627 0.622,0.717 0.538,0.718 0.622,0.627 0.538,0.717 0.712,-0.538 0.802,-0.538 0.717,-0.538 0.802,-0.538 0.717,-0.448 0.802,-0.537 0.711,-0.449 0.808,-0.358 0.711,-0.449 0.802,-0.359 0.807,-0.358 0.801,-0.359 0.803,-0.269 0.806,-0.358 0.891,-0.269 0.892,-0.269 0.801,-0.269 0.897,-0.18 0.891,-0.179 0.891,-0.179 0.981,-0.09 0.896,-0.179 0.892,0 0.98,-0.089 0.892,0 1.07,0 0.981,0.089 0.897,0.179 0.801,0.18 0.802,0.179 0.717,0.269 0.623,0.358 0.717,0.538 0.532,0.628 0.359,0.718 0.27,0.806 0.088,0.897 0,0.179 -0.088,1.076 -0.359,0.897 -0.449,0.627 -0.622,0.538 -0.718,0.538 -0.712,0.358 -0.801,0.359 -0.897,0.359 -1.07,0.447 -0.623,0.18 -0.711,0.179 -0.807,0.27 -0.802,0.179 -0.891,0.269 -0.897,0.179 -0.98,0.269 -0.892,0.179 -0.981,0.269 -0.891,0.179 -0.897,0.269 -0.89,0.18 -0.892,0.269 -0.807,0.268 -0.89,0.18 -0.803,0.269 -0.801,0.269 -0.807,0.269 -0.981,0.359 -0.891,0.359 -0.892,0.358 -0.896,0.359 -0.801,0.448 -0.892,0.448 -0.717,0.448 -0.802,0.448 -0.712,0.538 -0.717,0.448 -0.622,0.539 -0.627,0.627 -0.623,0.628 -0.538,0.628 -0.532,0.627 -0.449,0.627 -0.443,0.718 -0.448,0.806 -0.359,0.622 -0.269,0.718 -0.263,0.807 -0.269,0.717 -0.18,0.897 -0.179,0.807 -0.09,0.896 -0.089,0.897 -0.09,0.985 0,0.987 0,0.179 0,0.897 0.09,0.896 0.089,0.807 0.09,0.897 0.179,0.806 0.18,0.807 0.269,0.808 0.179,0.806 0.353,0.807 0.359,0.807 0.358,0.806 0.444,0.808 0.447,0.806 0.533,0.718 0.539,0.717 0.622,0.717 0.627,0.627 0.623,0.718 0.717,0.628 0.622,0.448 0.717,0.538 0.713,0.538 0.711,0.448 0.807,0.448 0.802,0.359 0.801,0.448 0.807,0.358 0.891,0.27 0.891,0.358 0.807,0.269 0.712,0.18 0.803,0.179 0.806,0.179 0.891,0.179 0.802,0.18 0.891,0.089 0.897,0.09 0.891,0.09 0.891,0.089 0.891,0 0.986,0 0.982,0 0.98,0 0.981,-0.089 0.981,-0.09 0.891,0 0.986,-0.09 0.891,-0.179 0.981,-0.09 0.892,-0.179 0.807,-0.179 0.891,-0.179 0.891,-0.18 0.802,-0.179 0.896,-0.269 0.802,-0.269 0.802,-0.18 0.896,-0.358 0.802,-0.269 0.801,-0.358 0.802,-0.359 0.896,-0.359 0.802,-0.448 0.712,-0.359 0.807,-0.448 0.802,-0.448 0.712,-0.449 0.806,-0.538 0.713,-0.447 0.717,-0.539 0.712,-0.538 0.711,-0.537 L -2.32,39.083 -2.768,38.366 -3.301,37.649 -3.839,36.931 -4.371,36.125 -4.82,35.408 -5.358,34.69 -5.891,33.973 -6.338,33.256 -6.872,32.538 -7.409,31.821 -7.858,31.104 -8.39,30.297 -8.929,29.58 l -0.532,-0.717 -0.448,-0.717 -0.533,-0.717 -0.717,0.537 -0.801,0.449 -0.713,0.448 -0.717,0.538 -0.801,0.358 -0.718,0.449 -0.801,0.359 -0.712,0.358 -0.807,0.359 -0.712,0.358 -0.801,0.269 -0.717,0.359 -0.982,0.268 -0.891,0.27 -0.891,0.268 -0.897,0.18 -0.891,0.179 -0.891,0.18 -0.891,0.09 -0.897,0.089 -0.801,0.09 -0.892,0 -1.07,0 -0.981,-0.179 -0.897,-0.18 -0.801,-0.179 -0.712,-0.359 -0.628,-0.358 -0.802,-0.718 -0.538,-0.807 -0.352,-0.807 -0.091,-0.896 0,-0.18 0.091,-1.165 0.442,-0.986 0.359,-0.538 0.622,-0.628 0.807,-0.448 0.712,-0.448 0.891,-0.359 0.986,-0.359 1.071,-0.358 0.712,-0.179 0.712,-0.269 0.807,-0.179 0.801,-0.269 0.891,-0.18 0.987,-0.269 0.981,-0.268 0.981,-0.27 0.98,-0.179 0.891,-0.269 0.981,-0.269 0.897,-0.179 0.892,-0.269 0.891,-0.269 0.801,-0.269 0.897,-0.269 0.802,-0.269 0.801,-0.269 0.986,-0.353 0.891,-0.449 0.891,-0.358 0.892,-0.448 0.807,-0.449 0.802,-0.448 0.711,-0.448 0.717,-0.538 0.713,-0.448 0.712,-0.628 0.717,-0.627 0.622,-0.718 L -3.481,13 -2.948,12.282 -2.41,11.476 -1.967,10.759 -1.518,9.951 -1.16,9.234 -0.891,8.428 -0.627,7.621 -0.448,6.814 -0.269,5.917 -0.09,5.02 0,4.124 0.09,3.138 l 0,-0.986 0,-0.179 0,-0.987 z m -62.594,-17.926 -0.896,0 -0.891,0 -0.891,0 -0.891,0 -0.897,0 -0.892,0 -0.89,0 -0.892,0 -0.986,0 -0.891,0 -0.891,0 -0.891,0 -0.898,0 -0.89,0 -0.892,0 -0.891,0 -0.897,0 -0.891,0 -0.891,0 -0.891,0 -0.892,0 -0.896,0 -0.891,0 -0.891,0 -0.892,0 -0.897,0 -0.891,0 -0.891,0 -0.981,0 -0.896,0 -0.892,0 -0.891,0 -0.891,0 -0.896,0 -0.892,0 -0.891,0 -0.892,0 -0.896,0 -0.891,0 -0.891,0 -0.892,0 -0.897,0 -0.89,0 -0.892,0 -0.891,0 -0.896,0 -0.892,0 -0.981,0 -0.891,0 -0.891,0 -0.897,0 -0.891,0 -0.892,0 -0.89,0 -0.896,0 -0.892,0 -0.891,0 0,0.897 0,0.897 0,0.896 0,0.892 0,0.897 0,0.896 0,0.896 0,0.896 0,0.897 0,0.897 0,0.896 0,0.897 0,0.897 0,0.896 0,0.897 0,0.896 0,0.896 0,0.897 0,0.807 0,0.897 0,0.896 0,0.896 0,0.897 0,0.897 0,0.896 0,0.897 0,0.897 0,0.896 0,0.896 0,0.896 0,0.897 0,0.897 0,0.896 0,0.897 0,0.897 0,0.896 0,0.897 0,0.896 0,0.896 0,0.897 0,0.896 0,0.892 0,0.896 0,0.897 0,0.897 0,0.896 0,0.896 0,0.897 0,0.896 0,0.897 0,0.897 0,0.896 0,0.897 0,0.896 0,0.807 0,0.896 0,0.897 0,0.897 0,0.896 0,0.897 0,0.896 0,0.897 0,0.896 0,0.897 0,0.896 0,0.897 0,0.897 0,0.896 0,0.896 0,0.897 0,0.896 0,0.897 0,0.897 0.891,0 0.892,0 0.896,0 0.89,0 0.892,0 0.891,0 0.897,0 0.891,0 0.891,0 0.892,0 0.896,0 0.892,0 0.89,0 0.892,0 0.806,0 0.892,0 0.891,0 0.892,0 0.896,0 0.891,0 0.891,0 0.892,0 0.896,0 0.891,0 0.891,0 0.892,0 0.897,0 0.891,0 0.891,0 0.891,0 0.897,0 0.892,0 0.89,0 0.891,0 0.892,0 0.897,0 0.891,0 0.891,0 0.891,0 0.897,0 0.891,0 0.891,0 0.891,0 0.808,0 0.891,0 0.891,0 0.892,0 0.896,0 0.891,0 0.891,0 0.891,0 0.897,0 0.891,0 0.891,0 0.892,0 0.896,0 0.892,0 0.891,0 0,-0.897 0,-0.807 0,-0.896 0,-0.897 0,-0.896 0,-0.807 0,-0.897 0,-0.897 0,-0.806 0,-0.897 0,-0.896 0,-0.808 0,-0.896 0,-0.896 0,-0.897 0,-0.807 0,-0.897 -0.891,0 -0.892,0 -0.896,0 -0.892,0 -0.891,0 -0.891,0 -0.807,0 -0.891,0 -0.891,0 -0.892,0 -0.896,0 -0.891,0 -0.892,0 -0.891,0 -0.897,0 -0.891,0 -0.891,0 -0.891,0 -0.897,0 -0.801,0 -0.892,0 -0.891,0 -0.897,0 -0.89,0 -0.892,0 -0.891,0 -0.897,0 -0.891,0 -0.891,0 -0.891,0 -0.897,0 -0.892,0 -0.801,0 -0.891,0 -0.896,0 -0.892,0 -0.891,0 -0.892,0 -0.896,0 0,-0.896 0,-0.896 0,-0.896 0,-0.897 0,-0.897 0,-0.807 0,-0.896 0,-0.897 0,-0.896 0,-0.897 0,-0.896 0,-0.897 0.896,0 0.892,0 0.891,0 0.892,0 0.896,0 0.891,0 0.891,0 0.892,0 0.807,0 0.891,0 0.891,0 0.891,0 0.897,0 0.891,0 0.892,0 0.89,0 0.897,0 0.891,0 0.892,0 0.891,0 0.896,0 0.891,0 0.892,0 0.892,0 0.896,0 0.891,0 0.802,0 0.891,0 0.896,0 0.892,0 0.891,0 0.891,0 0.896,0 0.892,0 0.891,0 0,-0.896 0,-0.807 0,-0.892 0,-0.896 0,-0.807 0,-0.896 0,-0.897 0,-0.807 0,-0.897 0,-0.896 0,-0.897 0,-0.806 0,-0.896 0,-0.897 0,-0.808 0,-0.896 -0.891,0 -0.892,0 -0.896,0 -0.891,0 -0.891,0 -0.892,0 -0.896,0 -0.891,0 -0.802,0 -0.891,0 -0.896,0 -0.892,0 -0.892,0 -0.891,0 -0.896,0 -0.891,0 -0.892,0 -0.891,0 -0.897,0 -0.89,0 -0.892,0 -0.891,0 -0.897,0 -0.891,0 -0.891,0 -0.891,0 -0.807,0 -0.892,0 -0.891,0 -0.891,0 -0.896,0 -0.892,0 -0.891,0 -0.892,0 -0.896,0 0,-0.896 0,-0.987 0,-0.896 0,-0.897 0,-0.986 0,-0.897 0,-0.896 0,-0.986 0,-0.896 0,-0.897 0,-0.986 0,-0.896 0.896,0 0.892,0 0.891,0 0.892,0 0.896,0 0.891,0 0.891,0 0.892,0 0.896,0 0.981,0 0.891,0 0.891,0 0.897,0 0.892,0 0.891,0 0.891,0 0.896,0 0.892,0 0.891,0 0.891,0 0.891,0 0.897,0 0.891,0 0.892,0 0.89,0 0.898,0 0.891,0 0.891,0 0.891,0 0.986,0 0.892,0 0.89,0 0.892,0 0.897,0 0.891,0 0.891,0 0.891,0 0.896,0 0.892,0 0,-0.897 0,-0.807 0,-0.897 0,-0.896 0,-0.897 0,-0.807 0,-0.896 0,-0.896 0,-0.808 0,-0.896 0,-0.896 0,-0.808 0,-0.891 0,-0.896 0,-0.896 0,-0.808 0,-0.897 z m -65.214,0 -0.891,0 -0.892,0 -0.985,0 -0.891,0 -0.892,0 -0.891,0 -0.897,0 -0.891,0 -0.981,0 -0.891,0 -0.892,0 -0.896,0 -0.891,0 -0.891,0 -0.981,0 -0.897,0 -0.891,0 -0.892,0 0,0.897 0,0.897 0,0.896 0,0.897 0,0.902 0,0.896 0,0.897 0,0.897 0,0.896 0,0.896 0,0.897 0,0.901 0,0.897 0,0.897 0,0.896 0,0.897 0,0.902 0,0.897 0,0.896 0,0.896 0,0.897 0,0.896 0,0.902 0,0.896 0,0.897 0,0.897 0,0.896 0,0.897 0,0.902 0,0.897 0,0.896 0,0.896 0,0.896 0,0.897 0,0.902 0,0.896 0,0.897 0,0.896 0,0.897 0,0.902 0,0.896 0,0.897 0,0.897 -0.447,-0.717 -0.533,-0.813 -0.449,-0.717 -0.532,-0.718 -0.448,-0.806 -0.539,-0.718 -0.442,-0.717 -0.449,-0.812 -0.532,-0.717 -0.449,-0.717 -0.537,-0.718 -0.443,-0.812 -0.538,-0.717 -0.443,-0.717 -0.449,-0.807 -0.538,-0.722 -0.443,-0.718 -0.538,-0.806 -0.442,-0.718 -0.538,-0.717 -0.443,-0.812 -0.449,-0.718 -0.537,-0.717 -0.443,-0.807 -0.538,-0.722 -0.443,-0.717 -0.538,-0.718 -0.449,-0.806 -0.443,-0.722 -0.537,-0.718 -0.443,-0.807 -0.538,-0.717 -0.448,-0.717 -0.533,-0.813 -0.448,-0.717 -0.354,0 -0.537,0.807 -0.449,0.723 -0.533,0.807 -0.448,0.717 -0.533,0.806 -0.448,0.723 -0.532,0.807 -0.449,0.718 -0.538,0.806 -0.443,0.717 -0.538,0.813 -0.442,0.717 -0.538,0.807 -0.449,0.717 -0.532,0.812 -0.449,0.717 -0.532,0.807 -0.538,0.717 -0.448,0.812 -0.533,0.717 -0.448,0.807 -0.533,0.717 -0.448,0.813 -0.533,0.717 -0.448,0.807 -0.538,0.717 -0.443,0.807 -0.538,0.723 -0.443,0.806 -0.538,0.718 -0.448,0.807 -0.532,0.716 -0.45,0.813 -0.532,0.717 0,-0.896 0,-0.897 0,-0.897 0,-0.901 0,-0.897 0,-0.896 0,-0.897 0,-0.897 0,-0.901 0,-0.897 0,-0.807 0,-0.896 0,-0.897 0,-0.896 0,-0.902 0,-0.897 0,-0.896 0,-0.896 0,-0.897 0,-0.897 0,-0.901 0,-0.897 0,-0.897 0,-0.896 0,-0.897 0,-0.896 0,-0.902 0,-0.896 0,-0.897 0,-0.896 0,-0.897 0,-0.901 0,-0.808 0,-0.896 0,-0.896 0,-0.897 0,-0.897 0,-0.896 0,-0.902 0,-0.897 0,-0.896 0,-0.897 0,-0.897 -0.891,0 -0.896,0 -0.892,0 -0.891,0 -0.891,0 -0.896,0 -0.892,0 -0.891,0 -0.892,0 -0.896,0 -0.891,0 -0.892,0 -0.891,0 -0.896,0 -0.891,0 -0.892,0 -0.892,0 -0.896,0 -0.891,0 0,0.897 0,0.897 0,0.896 0,0.892 0,0.897 0,0.896 0,0.896 0,0.896 0,0.897 0,0.897 0,0.896 0,0.897 0,0.897 0,0.896 0,0.897 0,0.896 0,0.896 0,0.897 0,0.807 0,0.897 0,0.896 0,0.896 0,0.897 0,0.897 0,0.896 0,0.897 0,0.897 0,0.896 0,0.896 0,0.896 0,0.897 0,0.897 0,0.896 0,0.897 0,0.897 0,0.896 0,0.897 0,0.896 0,0.896 0,0.897 0,0.896 0,0.892 0,0.896 0,0.897 0,0.897 0,0.896 0,0.896 0,0.897 0,0.896 0,0.897 0,0.897 0,0.896 0,0.897 0,0.896 0,0.807 0,0.896 0,0.897 0,0.897 0,0.896 0,0.897 0,0.896 0,0.897 0,0.896 0,0.897 0,0.896 0,0.897 0,0.897 0,0.896 0,0.896 0,0.897 0,0.896 0,0.897 0,0.897 0.891,0 0.896,0 0.803,0 0.89,0 0.892,0 0.896,0 0.802,0 0.891,0 0.897,0 0.891,0 0.802,0 0.891,0 0.897,0 0.891,0 0.801,0 0.891,0 0.897,0 0.892,0 0.801,0 0.891,0 0.897,0 0.443,-0.718 0.448,-0.806 0.532,-0.712 0.449,-0.807 0.448,-0.717 0.443,-0.808 0.448,-0.711 0.534,-0.808 0.447,-0.717 0.449,-0.717 0.443,-0.801 0.448,-0.718 0.533,-0.806 0.448,-0.718 0.448,-0.801 0.443,-0.717 0.538,-0.717 0.449,-0.803 0.442,-0.716 0.448,-0.807 0.444,-0.718 0.538,-0.801 0.448,-0.718 0.442,-0.806 0.449,-0.712 0.443,-0.717 0.538,-0.807 0.448,-0.718 0.443,-0.807 0.448,-0.712 0.443,-0.807 0.539,-0.717 0.448,-0.801 0.443,-0.718 0.448,0.718 0.448,0.801 0.533,0.717 0.447,0.807 0.444,0.712 0.448,0.807 0.533,0.718 0.448,0.807 0.449,0.717 0.442,0.712 0.538,0.806 0.443,0.718 0.449,0.801 0.447,0.718 0.533,0.807 0.448,0.716 0.449,0.803 0.442,0.717 0.45,0.717 0.532,0.801 0.448,0.718 0.448,0.806 0.444,0.718 0.537,0.801 0.444,0.717 0.447,0.717 0.449,0.808 0.532,0.711 0.449,0.808 0.442,0.717 0.449,0.807 0.538,0.712 0.443,0.806 0.448,0.718 0.891,0 0.892,0 0.806,0 0.892,0 0.891,0 0.891,0 0.807,0 0.892,0 0.89,0 0.892,0 0.807,0 0.891,0 0.891,0 0.892,0 0.806,0 0.892,0 0.891,0 0.891,0 0.807,0 0.891,0 0.891,0 0,-0.897 0,-0.897 0,-0.896 0,-0.897 0,-0.896 0,-0.896 0,-0.897 0,-0.897 0,-0.896 0,-0.897 0,-0.896 0,-0.897 0,-0.896 0,-0.897 0,-0.896 0,-0.897 0,-0.897 0,-0.896 0,-0.807 0,-0.896 0,-0.897 0,-0.896 0,-0.897 0,-0.897 0,-0.896 0,-0.897 0,-0.896 0,-0.896 0,-0.897 0,-0.897 0,-0.896 0,-0.892 0,-0.896 0,-0.897 0,-0.896 0,-0.896 0,-0.897 0,-0.896 0,-0.897 0,-0.897 0,-0.896 0,-0.897 0,-0.897 0,-0.896 0,-0.896 0,-0.896 0,-0.897 0,-0.897 0,-0.896 0,-0.897 0,-0.897 0,-0.896 0,-0.896 0,-0.897 0,-0.807 0,-0.897 0,-0.896 0,-0.896 0,-0.897 0,-0.896 0,-0.897 0,-0.897 0,-0.896 0,-0.897 0,-0.897 0,-0.896 0,-0.896 0,-0.896 0,-0.897 0,-0.892 0,-0.896 0,-0.897 0,-0.897 z m -103.559,26.891 -0.269,0.812 -0.353,0.897 -0.359,0.807 -0.269,0.812 -0.353,0.807 -0.358,0.897 -0.27,0.812 -0.359,0.807 -0.352,0.806 -0.27,0.812 -0.359,0.897 -0.263,0.807 -0.359,0.812 -0.359,0.807 -0.268,0.807 -0.354,0.901 -0.358,0.808 -0.269,0.806 -0.359,0.812 -0.353,0.897 -0.269,0.812 -0.359,0.807 -0.353,-0.807 -0.268,-0.812 -0.359,-0.897 -0.359,-0.812 -0.264,-0.806 -0.358,-0.808 -0.359,-0.901 -0.353,-0.807 -0.27,-0.807 -0.358,-0.812 -0.359,-0.807 -0.264,-0.897 -0.358,-0.812 -0.359,-0.806 -0.268,-0.807 -0.354,-0.812 -0.359,-0.897 -0.358,-0.807 -0.263,-0.812 -0.359,-0.807 -0.359,-0.897 -0.269,-0.812 -0.353,-0.807 0.891,0 0.891,0 0.892,0 0.896,0 0.891,0 0.891,0 0.892,0 0.897,0 0.801,0 0.891,0 0.897,0 0.891,0 0.891,0 0.892,0 0.891,0 0.896,0 0.891,0 z m 28.03,-26.891 -0.896,0 -0.803,0 -0.89,0 -0.897,0 -0.891,0 -0.892,0 -0.801,0 -0.897,0 -0.891,0 -0.891,0 -0.892,0 -0.896,0 -0.802,0 -0.891,0 -0.892,0 -0.896,0 -0.891,0 -0.802,0 -0.891,0 -0.896,0 -0.354,0.808 -0.269,0.807 -0.358,0.807 -0.359,0.896 -0.264,0.802 -0.358,0.806 -0.359,0.807 -0.264,0.807 -0.358,0.807 -0.359,0.807 -0.268,0.807 -0.354,0.896 -0.359,0.807 -0.269,0.807 -0.359,0.807 -0.891,0 -0.891,0 -0.891,0 -0.891,0 -0.807,0 -0.892,0 -0.891,0 -0.896,0 -0.891,0 -0.892,0 -0.891,0 -0.891,0 -0.897,0 -0.891,0 -0.801,0 -0.897,0 -0.892,0 -0.891,0 -0.891,0 -0.896,0 -0.892,0 -0.891,0 -0.891,0 -0.891,0 -0.808,0 -0.89,0 -0.892,0 -0.897,0 -0.891,0 -0.353,-0.807 -0.269,-0.807 -0.359,-0.807 -0.358,-0.896 -0.264,-0.807 -0.358,-0.807 -0.359,-0.807 -0.269,-0.807 -0.353,-0.807 -0.359,-0.806 -0.269,-0.802 -0.354,-0.896 -0.358,-0.807 -0.269,-0.807 -0.359,-0.808 -0.891,0 -0.891,0 -0.891,0 -0.897,0 -0.891,0 -0.981,0 -0.891,0 -0.892,0 -0.896,0 -0.891,0 -0.891,0 -0.892,0 -0.897,0 -0.89,0 -0.891,0 -0.981,0 -0.897,0 -0.891,0 -0.892,0 -0.891,0 0.353,0.808 0.359,0.807 0.358,0.807 0.354,0.896 0.269,0.802 0.359,0.806 0.358,0.807 0.353,0.807 0.359,0.807 0.359,0.897 0.353,0.807 0.359,0.806 0.268,0.807 0.359,0.807 0.353,0.807 0.359,0.896 0.358,0.807 0.354,0.808 0.359,0.806 0.358,0.807 0.269,0.807 0.353,0.897 0.359,0.806 0.359,0.807 0.353,0.807 0.359,0.807 0.359,0.807 0.353,0.897 0.269,0.806 0.359,0.807 0.358,0.807 0.354,0.807 0.358,0.807 0.358,0.896 0.354,0.807 0.358,0.807 0.269,0.807 0.359,0.806 0.353,0.807 0.359,0.897 0.359,0.807 0.353,0.807 0.358,0.807 0.359,0.806 0.269,0.808 0.354,0.801 0.358,0.897 0.358,0.806 0.354,0.808 0.358,0.807 0.359,0.806 0.353,0.807 0.269,0.897 0.359,0.806 0.358,0.807 0.354,0.807 0.359,0.807 0.358,0.807 0.354,0.897 0.358,0.806 0.269,0.807 0.358,0.807 0.354,0.807 0.358,0.807 0.359,0.896 0.353,0.807 0.359,0.807 0.359,0.807 0.263,0.806 0.359,0.808 0.359,0.896 0.359,0.807 0.353,0.807 0.359,0.807 0.358,0.807 0.353,0.806 0.27,0.897 0.358,0.807 0.359,0.807 0.353,0.807 0.891,0 0.807,0 0.891,0 0.891,0 0.897,0 0.801,0 0.891,0 0.892,0 0.897,0 0.802,0 0.89,0 0.892,0 0.896,0 0.802,0 0.891,0 0.891,0 0.897,0 0.801,0 0.892,0 0.358,-0.807 0.359,-0.807 0.354,-0.807 0.358,-0.897 0.269,-0.806 0.353,-0.807 0.359,-0.807 0.358,-0.807 0.359,-0.807 0.353,-0.896 0.359,-0.808 0.359,-0.806 0.263,-0.807 0.359,-0.807 0.359,-0.807 0.359,-0.896 0.353,-0.807 0.358,-0.807 0.359,-0.807 0.353,-0.807 0.269,-0.806 0.358,-0.897 0.354,-0.807 0.359,-0.807 0.358,-0.807 0.359,-0.807 0.353,-0.806 0.358,-0.897 0.27,-0.807 0.353,-0.806 0.358,-0.807 0.359,-0.808 0.359,-0.806 0.353,-0.897 0.359,-0.801 0.358,-0.808 0.264,-0.806 0.358,-0.807 0.359,-0.807 0.354,-0.807 0.358,-0.897 0.359,-0.807 0.359,-0.806 0.353,-0.807 0.269,-0.807 0.358,-0.807 0.354,-0.896 0.358,-0.807 0.359,-0.807 0.358,-0.807 0.354,-0.807 0.359,-0.806 0.268,-0.897 0.354,-0.807 0.358,-0.807 0.359,-0.807 0.353,-0.807 0.359,-0.806 0.359,-0.897 0.359,-0.807 0.263,-0.807 0.359,-0.806 0.359,-0.808 0.353,-0.807 0.358,-0.896 0.359,-0.807 0.358,-0.807 0.353,-0.807 0.27,-0.806 0.359,-0.807 0.353,-0.897 0.358,-0.807 0.358,-0.807 0.354,-0.807 0.358,-0.806 0.359,-0.802 0.27,-0.896 0.352,-0.807 0.359,-0.807 0.358,-0.808 z m -78.193,8.334 -0.717,-0.538 -0.623,-0.449 -0.717,-0.538 -0.712,-0.448 -0.712,-0.538 -0.717,-0.448 -0.712,-0.449 -0.807,-0.447 -0.802,-0.449 -0.802,-0.448 -0.806,-0.353 -0.802,-0.449 -0.891,-0.358 -0.801,-0.359 -0.897,-0.358 -0.801,-0.359 -0.803,-0.269 -0.806,-0.269 -0.802,-0.27 -0.891,-0.268 -0.801,-0.27 -0.897,-0.179 -0.802,-0.179 -0.891,-0.179 -0.896,-0.179 -0.892,-0.09 -0.981,-0.09 -0.891,-0.09 -0.981,-0.089 -0.897,-0.09 -0.98,-0.089 -0.981,0 -0.982,0 -0.98,0 -0.897,0 -0.891,0.089 -0.981,0.09 -0.891,0.089 -0.891,0.09 -0.897,0.09 -0.891,0.179 -0.892,0.18 -0.801,0.179 -0.896,0.179 -0.802,0.269 -0.891,0.179 -0.807,0.27 -0.802,0.358 -0.802,0.269 -0.89,0.359 -0.807,0.358 -0.802,0.358 -0.801,0.359 -0.808,0.448 -0.711,0.444 -0.802,0.448 -0.717,0.449 -0.712,0.447 -0.717,0.539 -0.712,0.537 -0.713,0.538 -0.627,0.538 -0.622,0.538 -0.628,0.628 -0.622,0.537 -0.628,0.628 -0.622,0.628 -0.538,0.627 -0.533,0.717 -0.538,0.628 -0.448,0.717 -0.533,0.718 -0.447,0.716 -0.444,0.718 -0.448,0.807 -0.448,0.717 -0.353,0.807 -0.359,0.807 -0.358,0.807 -0.354,0.806 -0.269,0.717 -0.359,0.808 -0.179,0.807 -0.264,0.806 -0.179,0.896 -0.269,0.808 -0.179,0.896 -0.09,0.807 -0.18,0.897 -0.088,0.806 -0.091,0.897 -0.084,0.897 -0.089,0.896 0,0.986 0,0.897 0,0.179 0,0.897 0.089,0.986 0,0.896 0.084,0.897 0.091,0.986 0.179,0.891 0.089,0.897 0.179,0.807 0.269,0.896 0.18,0.897 0.263,0.807 0.269,0.896 0.269,0.807 0.359,0.897 0.354,0.806 0.358,0.807 0.359,0.807 0.353,0.807 0.448,0.807 0.448,0.717 0.444,0.718 0.447,0.717 0.449,0.717 0.532,0.717 0.538,0.717 0.533,0.717 0.538,0.629 0.622,0.627 0.538,0.628 0.623,0.626 0.627,0.629 0.622,0.537 0.717,0.628 0.623,0.538 0.712,0.538 0.717,0.448 0.712,0.538 0.718,0.448 0.711,0.448 0.802,0.449 0.807,0.448 0.801,0.448 0.802,0.359 0.806,0.358 0.892,0.449 0.712,0.268 0.891,0.27 0.808,0.358 0.801,0.18 0.801,0.269 0.896,0.179 0.802,0.269 0.891,0.179 0.892,0.09 0.896,0.179 0.892,0.09 0.89,0.089 0.892,0.09 0.897,0.09 0.981,0 0.891,0 0.98,0 0.981,0 0.987,-0.09 0.981,-0.09 0.891,0 0.891,-0.089 0.981,-0.18 0.807,-0.089 0.891,-0.18 0.892,-0.179 0.806,-0.179 0.801,-0.179 0.803,-0.18 0.807,-0.269 0.801,-0.179 0.712,-0.269 0.807,-0.269 0.802,-0.358 0.801,-0.359 0.807,-0.359 0.802,-0.448 0.801,-0.359 0.718,-0.448 0.801,-0.448 0.712,-0.448 0.807,-0.449 0.712,-0.537 0.712,-0.449 0.717,-0.538 0.712,-0.538 0.717,-0.627 0.712,-0.538 -0.538,-0.718 -0.622,-0.627 -0.538,-0.717 -0.622,-0.717 -0.538,-0.718 -0.533,-0.627 -0.628,-0.717 -0.532,-0.717 -0.538,-0.629 -0.623,-0.717 -0.537,-0.717 -0.623,-0.717 -0.538,-0.628 -0.532,-0.717 -0.627,-0.717 -0.534,-0.717 -0.627,-0.628 -0.533,-0.717 -0.717,0.538 -0.712,0.627 -0.717,0.449 -0.712,0.538 -0.712,0.448 -0.717,0.449 -0.713,0.447 -0.801,0.449 -0.717,0.358 -0.712,0.359 -0.717,0.269 -0.802,0.269 -0.801,0.269 -0.807,0.179 -0.891,0.18 -0.891,0.179 -0.892,0.089 -0.981,0.09 -0.986,0.089 -0.981,0 -0.891,0 -0.891,-0.089 -0.807,-0.09 -0.891,-0.179 -0.802,-0.18 -0.807,-0.268 -0.801,-0.269 -0.802,-0.359 -0.802,-0.358 -0.717,-0.448 -0.711,-0.449 -0.718,-0.449 -0.622,-0.537 -0.628,-0.538 -0.622,-0.538 -0.538,-0.627 -0.622,-0.628 -0.538,-0.717 -0.444,-0.628 -0.448,-0.717 -0.442,-0.807 -0.449,-0.717 -0.358,-0.807 -0.269,-0.807 -0.354,-0.807 -0.269,-0.896 -0.179,-0.892 -0.179,-0.806 -0.18,-0.987 -0.089,-0.896 -0.084,-0.896 0,-0.987 0,-0.179 0,-0.897 0.084,-0.896 0.089,-0.807 0.09,-0.897 0.179,-0.806 0.18,-0.808 0.179,-0.806 0.269,-0.807 0.264,-0.717 0.359,-0.896 0.358,-0.808 0.443,-0.807 0.448,-0.717 0.448,-0.717 0.533,-0.718 0.538,-0.627 0.622,-0.628 0.539,-0.627 0.621,-0.538 0.718,-0.538 0.712,-0.538 0.711,-0.448 0.717,-0.448 0.803,-0.359 0.801,-0.359 0.806,-0.358 0.892,-0.269 0.891,-0.269 0.897,-0.18 0.891,-0.179 0.891,-0.089 0.981,-0.09 0.981,0 1.07,0 0.987,0.09 0.981,0.089 0.891,0.09 0.891,0.18 0.897,0.179 0.891,0.268 0.801,0.18 0.803,0.358 0.717,0.359 0.801,0.359 0.627,0.358 0.713,0.449 0,0.896 0,0.896 0,0.897 0,0.896 0,0.987 0,0.896 0,0.897 0,0.896 0,0.897 -0.892,0 -0.806,0 -0.892,0 -0.891,0 -0.891,0 -0.807,0 -0.892,0 -0.891,0 -0.891,0 -0.806,0 -0.892,0 -0.891,0 -0.892,0 -0.806,0 -0.892,0 0,0.896 0,0.807 0,0.897 0,0.896 0,0.897 0,0.807 0,0.896 0,0.897 0,0.896 0,0.808 0,0.896 0,0.896 0,0.897 0,0.807 0,0.891 0.892,0 0.896,0 0.892,0 0.89,0 0.892,0 0.891,0 0.897,0 0.891,0 0.891,0 0.892,0 0.896,0 0.891,0 0.891,0 0.891,0 0.897,0 0.892,0 0.891,0 0.891,0 0.896,0 0.892,0 0.891,0 0.891,0 0.896,0 0.892,0 0.891,0 0.891,0 0.897,0 0.891,0 0.892,0 0.891,0 0.896,0 0.891,0 0.892,0 0,-0.891 0,-0.896 0,-0.897 0,-0.807 0,-0.896 0,-0.897 0,-0.896 0,-0.897 0,-0.897 0,-0.806 0,-0.897 0,-0.897 0,-0.896 0,-0.897 0,-0.896 0,-0.897 0,-0.806 0,-0.897 0,-0.897 0,-0.897 0,-0.896 0,-0.897 0,-0.896 0,-0.807 0,-0.896 0,-0.897 0,-0.897 0,-0.896 0,-0.896 0,-0.808 0,-0.896 0,-0.896 0,-0.897 z" style="fill:#ffffff;fill-opacity:1;fill-rule:nonzero;stroke:none" id="path28"/></g><g id="g30" transform="translate(312.9946,481.1594)"><path d="m 0,0 38.683,0 0,29.922 -38.683,0 0,61.086 40.223,0 0,29.922 -73.072,0 0,-215.951 73.684,0 0,29.923 -40.835,0 z" style="fill:#ffffff;fill-opacity:1;fill-rule:nonzero;stroke:none" id="path32"/></g><g id="g34" transform="translate(590.0699,474.6773)"><path d="m 0,0 0,-48.744 c 0,-8.639 -3.993,-12.647 -12.278,-12.647 l -6.144,0 c -8.595,0 -12.588,4.008 -12.588,12.647 l 0,136.362 c 0,8.638 3.993,12.646 12.588,12.646 l 5.527,0 c 8.29,0 12.283,-4.008 12.283,-12.646 l 0,-42.269 32.233,0 0,44.12 c 0,26.837 -12.895,39.795 -39.6,39.795 l -15.969,0 C -50.654,129.264 -63.86,116 -63.86,89.158 l 0,-139.442 c 0,-26.843 13.206,-40.106 39.912,-40.106 l 16.274,0 c 26.712,0 39.911,13.263 39.911,40.106 l 0,50.284 z" style="fill:#ffffff;fill-opacity:1;fill-rule:nonzero;stroke:none" id="path36"/></g><path d="m 475.995,386.138 32.854,0 0,215.952 -32.854,0 z" style="fill:#ffffff;fill-opacity:1;fill-rule:nonzero;stroke:none" id="path38"/><g id="g40" transform="translate(428.3257,506.1461)"><path d="m 0,0 c 0,-8.639 -3.987,-12.652 -12.277,-12.652 l -13.511,0 0,79.596 13.511,0 C -3.987,66.944 0,62.935 0,54.298 Z m -7.061,95.944 -51.577,0 0,-215.952 32.85,0 0,78.362 18.727,0 c 26.711,0 39.911,13.263 39.911,40.1 l 0,57.384 c 0,26.842 -13.2,40.106 -39.911,40.106" style="fill:#ffffff;fill-opacity:1;fill-rule:nonzero;stroke:none" id="path42"/></g><g id="g44" transform="translate(357.6425,190.8749)"><path d="M 0,0 188.054,0 92.068,-31.654 Z" style="fill:#ffffff;fill-opacity:1;fill-rule:evenodd;stroke:none" id="path46"/></g></g></g></g><head xmlns=""><style type="text/css">.swal-icon--error{border-color:#f27474;-webkit-animation:animateErrorIcon .5s;animation:animateErrorIcon .5s}.swal-icon--error__x-mark{position:relative;display:block;-webkit-animation:animateXMark .5s;animation:animateXMark .5s}.swal-icon--error__line{position:absolute;height:5px;width:47px;background-color:#f27474;display:block;top:37px;border-radius:2px}.swal-icon--error__line--left{-webkit-transform:rotate(45deg);transform:rotate(45deg);left:17px}.swal-icon--error__line--right{-webkit-transform:rotate(-45deg);transform:rotate(-45deg);right:16px}@-webkit-keyframes animateErrorIcon{0%{-webkit-transform:rotateX(100deg);transform:rotateX(100deg);opacity:0}to{-webkit-transform:rotateX(0deg);transform:rotateX(0deg);opacity:1}}@keyframes animateErrorIcon{0%{-webkit-transform:rotateX(100deg);transform:rotateX(100deg);opacity:0}to{-webkit-transform:rotateX(0deg);transform:rotateX(0deg);opacity:1}}@-webkit-keyframes animateXMark{0%{-webkit-transform:scale(.4);transform:scale(.4);margin-top:26px;opacity:0}50%{-webkit-transform:scale(.4);transform:scale(.4);margin-top:26px;opacity:0}80%{-webkit-transform:scale(1.15);transform:scale(1.15);margin-top:-6px}to{-webkit-transform:scale(1);transform:scale(1);margin-top:0;opacity:1}}@keyframes animateXMark{0%{-webkit-transform:scale(.4);transform:scale(.4);margin-top:26px;opacity:0}50%{-webkit-transform:scale(.4);transform:scale(.4);margin-top:26px;opacity:0}80%{-webkit-transform:scale(1.15);transform:scale(1.15);margin-top:-6px}to{-webkit-transform:scale(1);transform:scale(1);margin-top:0;opacity:1}}.swal-icon--warning{border-color:#f8bb86;-webkit-animation:pulseWarning .75s infinite alternate;animation:pulseWarning .75s infinite alternate}.swal-icon--warning__body{width:5px;height:47px;top:10px;border-radius:2px;margin-left:-2px}.swal-icon--warning__body,.swal-icon--warning__dot{position:absolute;left:50%;background-color:#f8bb86}.swal-icon--warning__dot{width:7px;height:7px;border-radius:50%;margin-left:-4px;bottom:-11px}@-webkit-keyframes pulseWarning{0%{border-color:#f8d486}to{border-color:#f8bb86}}@keyframes pulseWarning{0%{border-color:#f8d486}to{border-color:#f8bb86}}.swal-icon--success{border-color:#a5dc86}.swal-icon--success:after,.swal-icon--success:before{content:"";border-radius:50%;position:absolute;width:60px;height:120px;background:#fff;-webkit-transform:rotate(45deg);transform:rotate(45deg)}.swal-icon--success:before{border-radius:120px 0 0 120px;top:-7px;left:-33px;-webkit-transform:rotate(-45deg);transform:rotate(-45deg);-webkit-transform-origin:60px 60px;transform-origin:60px 60px}.swal-icon--success:after{border-radius:0 120px 120px 0;top:-11px;left:30px;-webkit-transform:rotate(-45deg);transform:rotate(-45deg);-webkit-transform-origin:0 60px;transform-origin:0 60px;-webkit-animation:rotatePlaceholder 4.25s ease-in;animation:rotatePlaceholder 4.25s ease-in}.swal-icon--success__ring{width:80px;height:80px;border:4px solid hsla(98,55%,69%,.2);border-radius:50%;box-sizing:content-box;position:absolute;left:-4px;top:-4px;z-index:2}.swal-icon--success__hide-corners{width:5px;height:90px;background-color:#fff;padding:1px;position:absolute;left:28px;top:8px;z-index:1;-webkit-transform:rotate(-45deg);transform:rotate(-45deg)}.swal-icon--success__line{height:5px;background-color:#a5dc86;display:block;border-radius:2px;position:absolute;z-index:2}.swal-icon--success__line--tip{width:25px;left:14px;top:46px;-webkit-transform:rotate(45deg);transform:rotate(45deg);-webkit-animation:animateSuccessTip .75s;animation:animateSuccessTip .75s}.swal-icon--success__line--long{width:47px;right:8px;top:38px;-webkit-transform:rotate(-45deg);transform:rotate(-45deg);-webkit-animation:animateSuccessLong .75s;animation:animateSuccessLong .75s}@-webkit-keyframes rotatePlaceholder{0%{-webkit-transform:rotate(-45deg);transform:rotate(-45deg)}5%{-webkit-transform:rotate(-45deg);transform:rotate(-45deg)}12%{-webkit-transform:rotate(-405deg);transform:rotate(-405deg)}to{-webkit-transform:rotate(-405deg);transform:rotate(-405deg)}}@keyframes rotatePlaceholder{0%{-webkit-transform:rotate(-45deg);transform:rotate(-45deg)}5%{-webkit-transform:rotate(-45deg);transform:rotate(-45deg)}12%{-webkit-transform:rotate(-405deg);transform:rotate(-405deg)}to{-webkit-transform:rotate(-405deg);transform:rotate(-405deg)}}@-webkit-keyframes animateSuccessTip{0%{width:0;left:1px;top:19px}54%{width:0;left:1px;top:19px}70%{width:50px;left:-8px;top:37px}84%{width:17px;left:21px;top:48px}to{width:25px;left:14px;top:45px}}@keyframes animateSuccessTip{0%{width:0;left:1px;top:19px}54%{width:0;left:1px;top:19px}70%{width:50px;left:-8px;top:37px}84%{width:17px;left:21px;top:48px}to{width:25px;left:14px;top:45px}}@-webkit-keyframes animateSuccessLong{0%{width:0;right:46px;top:54px}65%{width:0;right:46px;top:54px}84%{width:55px;right:0;top:35px}to{width:47px;right:8px;top:38px}}@keyframes animateSuccessLong{0%{width:0;right:46px;top:54px}65%{width:0;right:46px;top:54px}84%{width:55px;right:0;top:35px}to{width:47px;right:8px;top:38px}}.swal-icon--info{border-color:#c9dae1}.swal-icon--info:before{width:5px;height:29px;bottom:17px;border-radius:2px;margin-left:-2px}.swal-icon--info:after,.swal-icon--info:before{content:"";position:absolute;left:50%;background-color:#c9dae1}.swal-icon--info:after{width:7px;height:7px;border-radius:50%;margin-left:-3px;top:19px}.swal-icon{width:80px;height:80px;border-width:4px;border-style:solid;border-radius:50%;padding:0;position:relative;box-sizing:content-box;margin:20px auto}.swal-icon:first-child{margin-top:32px}.swal-icon--custom{width:auto;height:auto;max-width:100%;border:none;border-radius:0}.swal-icon img{max-width:100%;max-height:100%}.swal-title{color:rgba(0,0,0,.65);font-weight:600;text-transform:none;position:relative;display:block;padding:13px 16px;font-size:27px;line-height:normal;text-align:center;margin-bottom:0}.swal-title:first-child{margin-top:26px}.swal-title:not(:first-child){padding-bottom:0}.swal-title:not(:last-child){margin-bottom:13px}.swal-text{font-size:16px;position:relative;float:none;line-height:normal;vertical-align:top;text-align:left;display:inline-block;margin:0;padding:0 10px;font-weight:400;color:rgba(0,0,0,.64);max-width:calc(100% - 20px);overflow-wrap:break-word;box-sizing:border-box}.swal-text:first-child{margin-top:45px}.swal-text:last-child{margin-bottom:45px}.swal-footer{text-align:right;padding-top:13px;margin-top:13px;padding:13px 16px;border-radius:inherit;border-top-left-radius:0;border-top-right-radius:0}.swal-button-container{margin:5px;display:inline-block;position:relative}.swal-button{background-color:#7cd1f9;color:#fff;border:none;box-shadow:none;border-radius:5px;font-weight:600;font-size:14px;padding:10px 24px;margin:0;cursor:pointer}.swal-button:not([disabled]):hover{background-color:#78cbf2}.swal-button:active{background-color:#70bce0}.swal-button:focus{outline:none;box-shadow:0 0 0 1px #fff,0 0 0 3px rgba(43,114,165,.29)}.swal-button[disabled]{opacity:.5;cursor:default}.swal-button::-moz-focus-inner{border:0}.swal-button--cancel{color:#555;background-color:#efefef}.swal-button--cancel:not([disabled]):hover{background-color:#e8e8e8}.swal-button--cancel:active{background-color:#d7d7d7}.swal-button--cancel:focus{box-shadow:0 0 0 1px #fff,0 0 0 3px rgba(116,136,150,.29)}.swal-button--danger{background-color:#e64942}.swal-button--danger:not([disabled]):hover{background-color:#df4740}.swal-button--danger:active{background-color:#cf423b}.swal-button--danger:focus{box-shadow:0 0 0 1px #fff,0 0 0 3px rgba(165,43,43,.29)}.swal-content{padding:0 20px;margin-top:20px;font-size:medium}.swal-content:last-child{margin-bottom:20px}.swal-content__input,.swal-content__textarea{-webkit-appearance:none;background-color:#fff;border:none;font-size:14px;display:block;box-sizing:border-box;width:100%;border:1px solid rgba(0,0,0,.14);padding:10px 13px;border-radius:2px;transition:border-color .2s}.swal-content__input:focus,.swal-content__textarea:focus{outline:none;border-color:#6db8ff}.swal-content__textarea{resize:vertical}.swal-button--loading{color:transparent}.swal-button--loading~.swal-button__loader{opacity:1}.swal-button__loader{position:absolute;height:auto;width:43px;z-index:2;left:50%;top:50%;-webkit-transform:translateX(-50%) translateY(-50%);transform:translateX(-50%) translateY(-50%);text-align:center;pointer-events:none;opacity:0}.swal-button__loader div{display:inline-block;float:none;vertical-align:baseline;width:9px;height:9px;padding:0;border:none;margin:2px;opacity:.4;border-radius:7px;background-color:hsla(0,0%,100%,.9);transition:background .2s;-webkit-animation:swal-loading-anim 1s infinite;animation:swal-loading-anim 1s infinite}.swal-button__loader div:nth-child(3n+2){-webkit-animation-delay:.15s;animation-delay:.15s}.swal-button__loader div:nth-child(3n+3){-webkit-animation-delay:.3s;animation-delay:.3s}@-webkit-keyframes swal-loading-anim{0%{opacity:.4}20%{opacity:.4}50%{opacity:1}to{opacity:.4}}@keyframes swal-loading-anim{0%{opacity:.4}20%{opacity:.4}50%{opacity:1}to{opacity:.4}}.swal-overlay{position:fixed;top:0;bottom:0;left:0;right:0;text-align:center;font-size:0;overflow-y:auto;background-color:rgba(0,0,0,.4);z-index:10000;pointer-events:none;opacity:0;transition:opacity .3s}.swal-overlay:before{content:" ";display:inline-block;vertical-align:middle;height:100%}.swal-overlay--show-modal{opacity:1;pointer-events:auto}.swal-overlay--show-modal .swal-modal{opacity:1;pointer-events:auto;box-sizing:border-box;-webkit-animation:showSweetAlert .3s;animation:showSweetAlert .3s;will-change:transform}.swal-modal{width:478px;opacity:0;pointer-events:none;background-color:#fff;text-align:center;border-radius:5px;position:static;margin:20px auto;display:inline-block;vertical-align:middle;-webkit-transform:scale(1);transform:scale(1);-webkit-transform-origin:50% 50%;transform-origin:50% 50%;z-index:10001;transition:opacity .2s,-webkit-transform .3s;transition:transform .3s,opacity .2s;transition:transform .3s,opacity .2s,-webkit-transform .3s}@media (max-width:500px){.swal-modal{width:calc(100% - 20px)}}@-webkit-keyframes showSweetAlert{0%{-webkit-transform:scale(1);transform:scale(1)}1%{-webkit-transform:scale(.5);transform:scale(.5)}45%{-webkit-transform:scale(1.05);transform:scale(1.05)}80%{-webkit-transform:scale(.95);transform:scale(.95)}to{-webkit-transform:scale(1);transform:scale(1)}}@keyframes showSweetAlert{0%{-webkit-transform:scale(1);transform:scale(1)}1%{-webkit-transform:scale(.5);transform:scale(.5)}45%{-webkit-transform:scale(1.05);transform:scale(1.05)}80%{-webkit-transform:scale(.95);transform:scale(.95)}to{-webkit-transform:scale(1);transform:scale(1)}}</style></head></svg>