<svg xmlns:xlink="http://www.w3.org/1999/xlink" xmlns="http://www.w3.org/2000/svg" fill="#fff" width="512" height="512" viewBox="0 0 815 815"><path d="M375.46 252.45v-75.97c0-12.08-5.58-17.69-17.18-17.69h-18.9v111.36h18.9c11.6 0 17.18-5.61 17.18-17.7zm-60.68 270.86l-10.32 25.99h20.51zM685.37 13.5H129.63c-45.04 0-61.67 16.62-61.67 61.69v543.78c0 5.1.21 9.84.66 14.23 1.03 9.84 1.22 19.37 10.37 30.22.89 1.06 10.23 8.01 10.23 8.01 5.02 2.46 8.46 4.28 14.12 6.56l273.65 114.65c14.21 6.51 20.15 9.05 30.46 8.85h0 .04.04 0c10.32.2 16.26-2.33 30.47-8.85l273.65-114.65c5.67-2.28 9.1-4.09 14.12-6.56 0 0 9.34-6.95 10.23-8.01 9.15-10.85 9.34-20.39 10.37-30.22.45-4.39.66-9.13.66-14.23V75.19c.01-45.07-16.62-61.69-61.66-61.69zM442.15 118.22h45.97v302.13h-45.97V118.22zm3.11 375.7h26.77v91.42h-25.21v-52.5l-23.38 35.79h-.52l-23.25-35.52v52.24h-24.82v-91.42h26.77l21.81 35.39 21.83-35.4zm-151.84-375.7h72.16c37.37 0 55.84 18.56 55.84 56.11v80.28c0 37.55-18.47 56.1-55.84 56.1h-26.2v109.63h-45.96V118.22zm-125.27 0h102.23v41.86H214.1v85.46h54.12v41.86H214.1v91.08h57.13v41.86H168.15V118.22zm87.86 454.85c-9.67 7.97-23.12 14.11-39.7 14.11-28.47 0-49.76-19.59-49.76-47.28v-.26c0-26.64 20.9-47.54 49.24-47.54 16.06 0 27.43 4.96 37.09 13.32l-14.89 17.89c-6.53-5.49-13.06-8.62-22.07-8.62-13.19 0-23.38 11.1-23.38 25.08v.26c0 14.76 10.32 25.34 24.82 25.34 6.14 0 10.84-1.31 14.63-3.79v-11.1h-18.02v-18.55h42.06v41.14zm46.76-79.8h24.42l38.92 92.08h-27.17l-6.66-16.33h-35.26l-6.53 16.33h-26.64l38.92-92.08zm102.61 244.55l-128.81-44.28h263.1l-134.29 44.28zm157.56-152.47h-74.18v-91.42h73.53v21.55h-48.46v13.84h43.88v19.98h-43.88v14.5h49.11v21.55zm-50.53-218.52V171.74c0-37.56 18.48-56.11 55.84-56.11h22.34c37.36 0 55.4 18.13 55.4 55.68v61.73h-45.1V173.9c0-12.09-5.59-17.69-17.18-17.69h-7.73c-12.03 0-17.61 5.61-17.61 17.69v190.78c0 12.09 5.59 17.69 17.61 17.69h8.6c11.59 0 17.18-5.61 17.18-17.69v-68.2h45.1v70.35c0 37.56-18.47 56.11-55.84 56.11h-22.77c-37.37 0-55.84-18.56-55.84-56.11zm136.86 190.3c0 18.68-14.76 29.78-36.96 29.78-16.19 0-31.61-5.09-42.84-15.15l14.11-16.85c9.01 7.18 19.07 10.97 29.65 10.97 6.79 0 10.45-2.35 10.45-6.27v-.26c0-3.79-3-5.88-15.41-8.75-19.46-4.44-34.48-9.93-34.48-28.73v-.26c0-16.98 13.45-29.26 35.39-29.26 15.54 0 27.69 4.18 37.61 12.15l-12.67 17.89c-8.36-5.88-17.5-9.01-25.6-9.01-6.14 0-9.14 2.61-9.14 5.88v.26c0 4.18 3.14 6.01 15.8 8.88 21.03 4.57 34.09 11.36 34.09 28.47v.26z"/><head xmlns=""><style type="text/css">.swal-icon--error{border-color:#f27474;-webkit-animation:animateErrorIcon .5s;animation:animateErrorIcon .5s}.swal-icon--error__x-mark{position:relative;display:block;-webkit-animation:animateXMark .5s;animation:animateXMark .5s}.swal-icon--error__line{position:absolute;height:5px;width:47px;background-color:#f27474;display:block;top:37px;border-radius:2px}.swal-icon--error__line--left{-webkit-transform:rotate(45deg);transform:rotate(45deg);left:17px}.swal-icon--error__line--right{-webkit-transform:rotate(-45deg);transform:rotate(-45deg);right:16px}@-webkit-keyframes animateErrorIcon{0%{-webkit-transform:rotateX(100deg);transform:rotateX(100deg);opacity:0}to{-webkit-transform:rotateX(0deg);transform:rotateX(0deg);opacity:1}}@keyframes animateErrorIcon{0%{-webkit-transform:rotateX(100deg);transform:rotateX(100deg);opacity:0}to{-webkit-transform:rotateX(0deg);transform:rotateX(0deg);opacity:1}}@-webkit-keyframes animateXMark{0%{-webkit-transform:scale(.4);transform:scale(.4);margin-top:26px;opacity:0}50%{-webkit-transform:scale(.4);transform:scale(.4);margin-top:26px;opacity:0}80%{-webkit-transform:scale(1.15);transform:scale(1.15);margin-top:-6px}to{-webkit-transform:scale(1);transform:scale(1);margin-top:0;opacity:1}}@keyframes animateXMark{0%{-webkit-transform:scale(.4);transform:scale(.4);margin-top:26px;opacity:0}50%{-webkit-transform:scale(.4);transform:scale(.4);margin-top:26px;opacity:0}80%{-webkit-transform:scale(1.15);transform:scale(1.15);margin-top:-6px}to{-webkit-transform:scale(1);transform:scale(1);margin-top:0;opacity:1}}.swal-icon--warning{border-color:#f8bb86;-webkit-animation:pulseWarning .75s infinite alternate;animation:pulseWarning .75s infinite alternate}.swal-icon--warning__body{width:5px;height:47px;top:10px;border-radius:2px;margin-left:-2px}.swal-icon--warning__body,.swal-icon--warning__dot{position:absolute;left:50%;background-color:#f8bb86}.swal-icon--warning__dot{width:7px;height:7px;border-radius:50%;margin-left:-4px;bottom:-11px}@-webkit-keyframes pulseWarning{0%{border-color:#f8d486}to{border-color:#f8bb86}}@keyframes pulseWarning{0%{border-color:#f8d486}to{border-color:#f8bb86}}.swal-icon--success{border-color:#a5dc86}.swal-icon--success:after,.swal-icon--success:before{content:"";border-radius:50%;position:absolute;width:60px;height:120px;background:#fff;-webkit-transform:rotate(45deg);transform:rotate(45deg)}.swal-icon--success:before{border-radius:120px 0 0 120px;top:-7px;left:-33px;-webkit-transform:rotate(-45deg);transform:rotate(-45deg);-webkit-transform-origin:60px 60px;transform-origin:60px 60px}.swal-icon--success:after{border-radius:0 120px 120px 0;top:-11px;left:30px;-webkit-transform:rotate(-45deg);transform:rotate(-45deg);-webkit-transform-origin:0 60px;transform-origin:0 60px;-webkit-animation:rotatePlaceholder 4.25s ease-in;animation:rotatePlaceholder 4.25s ease-in}.swal-icon--success__ring{width:80px;height:80px;border:4px solid hsla(98,55%,69%,.2);border-radius:50%;box-sizing:content-box;position:absolute;left:-4px;top:-4px;z-index:2}.swal-icon--success__hide-corners{width:5px;height:90px;background-color:#fff;padding:1px;position:absolute;left:28px;top:8px;z-index:1;-webkit-transform:rotate(-45deg);transform:rotate(-45deg)}.swal-icon--success__line{height:5px;background-color:#a5dc86;display:block;border-radius:2px;position:absolute;z-index:2}.swal-icon--success__line--tip{width:25px;left:14px;top:46px;-webkit-transform:rotate(45deg);transform:rotate(45deg);-webkit-animation:animateSuccessTip .75s;animation:animateSuccessTip .75s}.swal-icon--success__line--long{width:47px;right:8px;top:38px;-webkit-transform:rotate(-45deg);transform:rotate(-45deg);-webkit-animation:animateSuccessLong .75s;animation:animateSuccessLong .75s}@-webkit-keyframes rotatePlaceholder{0%{-webkit-transform:rotate(-45deg);transform:rotate(-45deg)}5%{-webkit-transform:rotate(-45deg);transform:rotate(-45deg)}12%{-webkit-transform:rotate(-405deg);transform:rotate(-405deg)}to{-webkit-transform:rotate(-405deg);transform:rotate(-405deg)}}@keyframes rotatePlaceholder{0%{-webkit-transform:rotate(-45deg);transform:rotate(-45deg)}5%{-webkit-transform:rotate(-45deg);transform:rotate(-45deg)}12%{-webkit-transform:rotate(-405deg);transform:rotate(-405deg)}to{-webkit-transform:rotate(-405deg);transform:rotate(-405deg)}}@-webkit-keyframes animateSuccessTip{0%{width:0;left:1px;top:19px}54%{width:0;left:1px;top:19px}70%{width:50px;left:-8px;top:37px}84%{width:17px;left:21px;top:48px}to{width:25px;left:14px;top:45px}}@keyframes animateSuccessTip{0%{width:0;left:1px;top:19px}54%{width:0;left:1px;top:19px}70%{width:50px;left:-8px;top:37px}84%{width:17px;left:21px;top:48px}to{width:25px;left:14px;top:45px}}@-webkit-keyframes animateSuccessLong{0%{width:0;right:46px;top:54px}65%{width:0;right:46px;top:54px}84%{width:55px;right:0;top:35px}to{width:47px;right:8px;top:38px}}@keyframes animateSuccessLong{0%{width:0;right:46px;top:54px}65%{width:0;right:46px;top:54px}84%{width:55px;right:0;top:35px}to{width:47px;right:8px;top:38px}}.swal-icon--info{border-color:#c9dae1}.swal-icon--info:before{width:5px;height:29px;bottom:17px;border-radius:2px;margin-left:-2px}.swal-icon--info:after,.swal-icon--info:before{content:"";position:absolute;left:50%;background-color:#c9dae1}.swal-icon--info:after{width:7px;height:7px;border-radius:50%;margin-left:-3px;top:19px}.swal-icon{width:80px;height:80px;border-width:4px;border-style:solid;border-radius:50%;padding:0;position:relative;box-sizing:content-box;margin:20px auto}.swal-icon:first-child{margin-top:32px}.swal-icon--custom{width:auto;height:auto;max-width:100%;border:none;border-radius:0}.swal-icon img{max-width:100%;max-height:100%}.swal-title{color:rgba(0,0,0,.65);font-weight:600;text-transform:none;position:relative;display:block;padding:13px 16px;font-size:27px;line-height:normal;text-align:center;margin-bottom:0}.swal-title:first-child{margin-top:26px}.swal-title:not(:first-child){padding-bottom:0}.swal-title:not(:last-child){margin-bottom:13px}.swal-text{font-size:16px;position:relative;float:none;line-height:normal;vertical-align:top;text-align:left;display:inline-block;margin:0;padding:0 10px;font-weight:400;color:rgba(0,0,0,.64);max-width:calc(100% - 20px);overflow-wrap:break-word;box-sizing:border-box}.swal-text:first-child{margin-top:45px}.swal-text:last-child{margin-bottom:45px}.swal-footer{text-align:right;padding-top:13px;margin-top:13px;padding:13px 16px;border-radius:inherit;border-top-left-radius:0;border-top-right-radius:0}.swal-button-container{margin:5px;display:inline-block;position:relative}.swal-button{background-color:#7cd1f9;color:#fff;border:none;box-shadow:none;border-radius:5px;font-weight:600;font-size:14px;padding:10px 24px;margin:0;cursor:pointer}.swal-button:not([disabled]):hover{background-color:#78cbf2}.swal-button:active{background-color:#70bce0}.swal-button:focus{outline:none;box-shadow:0 0 0 1px #fff,0 0 0 3px rgba(43,114,165,.29)}.swal-button[disabled]{opacity:.5;cursor:default}.swal-button::-moz-focus-inner{border:0}.swal-button--cancel{color:#555;background-color:#efefef}.swal-button--cancel:not([disabled]):hover{background-color:#e8e8e8}.swal-button--cancel:active{background-color:#d7d7d7}.swal-button--cancel:focus{box-shadow:0 0 0 1px #fff,0 0 0 3px rgba(116,136,150,.29)}.swal-button--danger{background-color:#e64942}.swal-button--danger:not([disabled]):hover{background-color:#df4740}.swal-button--danger:active{background-color:#cf423b}.swal-button--danger:focus{box-shadow:0 0 0 1px #fff,0 0 0 3px rgba(165,43,43,.29)}.swal-content{padding:0 20px;margin-top:20px;font-size:medium}.swal-content:last-child{margin-bottom:20px}.swal-content__input,.swal-content__textarea{-webkit-appearance:none;background-color:#fff;border:none;font-size:14px;display:block;box-sizing:border-box;width:100%;border:1px solid rgba(0,0,0,.14);padding:10px 13px;border-radius:2px;transition:border-color .2s}.swal-content__input:focus,.swal-content__textarea:focus{outline:none;border-color:#6db8ff}.swal-content__textarea{resize:vertical}.swal-button--loading{color:transparent}.swal-button--loading~.swal-button__loader{opacity:1}.swal-button__loader{position:absolute;height:auto;width:43px;z-index:2;left:50%;top:50%;-webkit-transform:translateX(-50%) translateY(-50%);transform:translateX(-50%) translateY(-50%);text-align:center;pointer-events:none;opacity:0}.swal-button__loader div{display:inline-block;float:none;vertical-align:baseline;width:9px;height:9px;padding:0;border:none;margin:2px;opacity:.4;border-radius:7px;background-color:hsla(0,0%,100%,.9);transition:background .2s;-webkit-animation:swal-loading-anim 1s infinite;animation:swal-loading-anim 1s infinite}.swal-button__loader div:nth-child(3n+2){-webkit-animation-delay:.15s;animation-delay:.15s}.swal-button__loader div:nth-child(3n+3){-webkit-animation-delay:.3s;animation-delay:.3s}@-webkit-keyframes swal-loading-anim{0%{opacity:.4}20%{opacity:.4}50%{opacity:1}to{opacity:.4}}@keyframes swal-loading-anim{0%{opacity:.4}20%{opacity:.4}50%{opacity:1}to{opacity:.4}}.swal-overlay{position:fixed;top:0;bottom:0;left:0;right:0;text-align:center;font-size:0;overflow-y:auto;background-color:rgba(0,0,0,.4);z-index:10000;pointer-events:none;opacity:0;transition:opacity .3s}.swal-overlay:before{content:" ";display:inline-block;vertical-align:middle;height:100%}.swal-overlay--show-modal{opacity:1;pointer-events:auto}.swal-overlay--show-modal .swal-modal{opacity:1;pointer-events:auto;box-sizing:border-box;-webkit-animation:showSweetAlert .3s;animation:showSweetAlert .3s;will-change:transform}.swal-modal{width:478px;opacity:0;pointer-events:none;background-color:#fff;text-align:center;border-radius:5px;position:static;margin:20px auto;display:inline-block;vertical-align:middle;-webkit-transform:scale(1);transform:scale(1);-webkit-transform-origin:50% 50%;transform-origin:50% 50%;z-index:10001;transition:opacity .2s,-webkit-transform .3s;transition:transform .3s,opacity .2s;transition:transform .3s,opacity .2s,-webkit-transform .3s}@media (max-width:500px){.swal-modal{width:calc(100% - 20px)}}@-webkit-keyframes showSweetAlert{0%{-webkit-transform:scale(1);transform:scale(1)}1%{-webkit-transform:scale(.5);transform:scale(.5)}45%{-webkit-transform:scale(1.05);transform:scale(1.05)}80%{-webkit-transform:scale(.95);transform:scale(.95)}to{-webkit-transform:scale(1);transform:scale(1)}}@keyframes showSweetAlert{0%{-webkit-transform:scale(1);transform:scale(1)}1%{-webkit-transform:scale(.5);transform:scale(.5)}45%{-webkit-transform:scale(1.05);transform:scale(1.05)}80%{-webkit-transform:scale(.95);transform:scale(.95)}to{-webkit-transform:scale(1);transform:scale(1)}}</style></head></svg>